<svg xmlns="http://www.w3.org/2000/svg" width="187.843" height="205.106" viewBox="0 0 187.843 205.106">
  <g id="그룹_84" data-name="그룹 84" transform="translate(-106.582 -333.59)">
    <g id="그룹_13" data-name="그룹 13" transform="translate(180.044 333.59)">
      <g id="그룹_12" data-name="그룹 12" transform="translate(0)">
        <path id="패스_23" data-name="패스 23" d="M1233.389,1525.069c8.455-4.24,25.722-16.234,19.032-41.375a3.99,3.99,0,0,0-5.64-2.545c-13.292,6.529-22.439,24.493-19.01,41.22A3.94,3.94,0,0,0,1233.389,1525.069Z" transform="translate(-1225.29 -1478.975)" fill="#8fba7e"/>
        <path id="패스_24" data-name="패스 24" d="M1231.989,1527.606a5.707,5.707,0,0,1-2.5-.58,5.612,5.612,0,0,1-3.075-3.943c-3.484-16.989,5.281-35.942,19.953-43.149a5.746,5.746,0,0,1,8.113,3.67c7.076,26.592-11.589,39.206-19.943,43.394h0A5.671,5.671,0,0,1,1231.989,1527.606Zm16.941-44.759a2.285,2.285,0,0,0-1.015.239c-13.084,6.427-21.187,24.052-18.062,39.291a2.124,2.124,0,0,0,1.17,1.491,2.185,2.185,0,0,0,1.941-.007h0c9.422-4.724,24.305-16.118,18.122-39.354a2.187,2.187,0,0,0-1.225-1.457A2.226,2.226,0,0,0,1248.929,1482.847Z" transform="translate(-1225.651 -1479.335)" fill="#8fba7e"/>
      </g>
    </g>
    <g id="그룹_14" data-name="그룹 14" transform="translate(106.582 389.615)">
      <path id="패스_25" data-name="패스 25" d="M1190.595,1558a21.2,21.2,0,0,1,17.77-24.147c.361-.055.719-.078,1.078-.113-11.562-6.339-31.108-14.449-38.555-1.978-6.809,11.4,3.373,25.781,10.771,33.982a21.079,21.079,0,0,1,9.544-5.055A21.151,21.151,0,0,1,1190.595,1558Z" transform="translate(-1166.906 -1523.51)" fill="#f3d7c9"/>
      <path id="패스_26" data-name="패스 26" d="M1181.9,1568.59l-1.188-1.317c-7.3-8.1-18.443-23.548-10.975-36.057,6.12-10.244,20.645-9.768,40.906,1.34l4.982,2.731-5.976.584c-.22.019-.442.038-.664.072a19.466,19.466,0,0,0-16.3,22.147h0a19.043,19.043,0,0,0,.561,2.466l.512,1.78-1.8.415a19.42,19.42,0,0,0-8.752,4.638Zm2.131-41.248c-4.717,0-8.808,1.535-11.278,5.673-5.966,9.99,2.836,23,9.439,30.63a22.956,22.956,0,0,1,7.244-3.84c-.089-.408-.161-.8-.22-1.188h0a22.994,22.994,0,0,1,15.421-25.227C1198.347,1530.311,1190.586,1527.343,1184.031,1527.343Z" transform="translate(-1167.263 -1523.864)" fill="#f3d7c9"/>
    </g>
    <g id="그룹_15" data-name="그룹 15" transform="translate(233.8 367.423)">
      <path id="패스_27" data-name="패스 27" d="M1300.322,1539.142a19.909,19.909,0,0,1-.652,2.519,19.889,19.889,0,0,1,5.965,2.7c7.005-7.705,15.373-19.972,9.674-30.2-7.063-12.677-27.565-3.977-38.287,1.75a19.777,19.777,0,0,1,7.222-.044A20.006,20.006,0,0,1,1300.322,1539.142Z" transform="translate(-1266.145 -1505.864)" fill="#f3d7c9"/>
      <path id="패스_28" data-name="패스 28" d="M1308.151,1547.017l-1.256-.835a18.1,18.1,0,0,0-5.439-2.461l-1.792-.469.566-1.764a18.134,18.134,0,0,0,.6-2.3h0a18.159,18.159,0,0,0-21.25-21.193l-11.2,2.095,10.05-5.369c11.867-6.34,32.931-14.908,40.647-1.056,6.093,10.933-2.026,23.565-9.908,32.235Zm-4.093-6.164a21.64,21.64,0,0,1,3.479,1.6c6.786-7.75,13.318-18.382,8.471-27.081-5.128-9.2-19.2-5.215-29.136-.859a21.76,21.76,0,0,1,17.409,25.306h0C1304.218,1540.16,1304.145,1540.5,1304.059,1540.853Z" transform="translate(-1268.377 -1506.226)" fill="#f3d7c9"/>
    </g>
    <g id="그룹_16" data-name="그룹 16" transform="translate(115.556 361.385)">
      <path id="패스_29" data-name="패스 29" d="M1345.568,1587.569a19.679,19.679,0,0,0-6.873-26.508c.111-.434.228-.864.309-1.312a19.748,19.748,0,0,0-10.05-20.93c.074-.316.164-.624.223-.946a19.751,19.751,0,0,0-29.046-20.805,19.72,19.72,0,0,0-34.738-6.328,19.7,19.7,0,0,0-30.317,4.289A19.757,19.757,0,0,0,1206.539,1529c-.01.058-.011.114-.021.171a19.709,19.709,0,0,0-18.826,28.343,19.694,19.694,0,0,0-4.165,29.755,19.7,19.7,0,0,0,1.383,32.269,17.053,17.053,0,0,0,17.753,24.937,17.845,17.845,0,0,0,25.313,19.74,15.34,15.34,0,0,0,25.577,3.708,15.345,15.345,0,0,0,26.668,1.761,19.728,19.728,0,0,0,25.687-9.127c.266.061.522.137.793.188a19.75,19.75,0,0,0,22.982-15.874c.059-.322.084-.643.127-.964a19.712,19.712,0,0,0,15.108-28.228,19.684,19.684,0,0,0,.652-28.111Z" transform="translate(-1174.036 -1501.066)" fill="#fff1e1"/>
      <path id="패스_30" data-name="패스 30" d="M1267.742,1678.738a16.963,16.963,0,0,1-14.212-7.592,17.09,17.09,0,0,1-26-4.305,19.325,19.325,0,0,1-7.024,1.315,19.65,19.65,0,0,1-19.627-19.627q0-.86.075-1.725c-.191.006-.38.01-.566.01a18.876,18.876,0,0,1-17.349-26.323,21.452,21.452,0,0,1-1.61-33.094,21.441,21.441,0,0,1,4.424-30.142,21.293,21.293,0,0,1-1.22-11.888,21.529,21.529,0,0,1,20.816-17.619,21.509,21.509,0,0,1,24.747-15.987,21.588,21.588,0,0,1,4.61,1.39,21.622,21.622,0,0,1,21.4-8.732,21.393,21.393,0,0,1,9.322,4.186,21.474,21.474,0,0,1,35.972,6.366,21.506,21.506,0,0,1,29.806,23.335,21.441,21.441,0,0,1,9.785,22.12c-.014.068-.026.137-.04.205a21.422,21.422,0,0,1,7,27.027,21.557,21.557,0,0,1,4.862,17.881,21.269,21.269,0,0,1-5.537,10.886,21.465,21.465,0,0,1-15.655,29.365,21.508,21.508,0,0,1-24.543,17.119,21.481,21.481,0,0,1-25.984,9.284A17.068,17.068,0,0,1,1267.742,1678.738Zm-13.827-12.209a1.817,1.817,0,0,1,.231.015,1.757,1.757,0,0,1,1.349.976,13.589,13.589,0,0,0,23.621,1.56,1.752,1.752,0,0,1,2.183-.638,17.973,17.973,0,0,0,23.4-8.314,1.748,1.748,0,0,1,1.954-.922c.119.026.237.057.356.087s.239.063.363.086a18,18,0,0,0,20.943-14.463c.031-.169.049-.339.068-.508l.045-.372a1.756,1.756,0,0,1,1.507-1.507,17.956,17.956,0,0,0,13.764-25.717,1.756,1.756,0,0,1,.376-2.052,17.825,17.825,0,0,0,5.386-9.854,18.038,18.038,0,0,0-4.8-15.756,1.752,1.752,0,0,1-.267-2.081,17.926,17.926,0,0,0-6.263-24.152,1.755,1.755,0,0,1-.782-1.93l.054-.211c.083-.323.169-.647.229-.98a17.944,17.944,0,0,0-9.157-19.071,1.753,1.753,0,0,1-.875-1.946l.087-.35c.043-.169.087-.337.118-.511a17.995,17.995,0,0,0-26.464-18.956,1.756,1.756,0,0,1-2.54-1.042,17.965,17.965,0,0,0-31.649-5.766,1.758,1.758,0,0,1-1.247.694,1.732,1.732,0,0,1-1.352-.463,17.946,17.946,0,0,0-27.618,3.91,1.755,1.755,0,0,1-2.314.65,18,18,0,0,0-26,12.73,1.482,1.482,0,0,1-.019.153,1.765,1.765,0,0,1-1.829,1.454,17.952,17.952,0,0,0-17.149,25.82,1.757,1.757,0,0,1-.635,2.251,17.94,17.94,0,0,0-3.795,27.11,1.755,1.755,0,0,1-.243,2.558,17.948,17.948,0,0,0,1.26,29.4,1.754,1.754,0,0,1,.6,2.3,15.2,15.2,0,0,0-1.8,7.209,15.387,15.387,0,0,0,15.37,15.37,15.16,15.16,0,0,0,2.362-.2,1.756,1.756,0,0,1,1.988,2.095,16.116,16.116,0,0,0,15.769,19.449,15.929,15.929,0,0,0,7.056-1.646,1.757,1.757,0,0,1,2.368.851,13.585,13.585,0,0,0,22.656,3.284A1.76,1.76,0,0,1,1253.915,1666.529Z" transform="translate(-1174.396 -1501.427)" fill="#fff1e1"/>
    </g>
    <g id="그룹_17" data-name="그룹 17" transform="translate(168.881 428.254)">
      <path id="패스_31" data-name="패스 31" d="M1257.719,1564.212a17.408,17.408,0,0,0,11.424-7.375,1.951,1.951,0,0,1,2.768-.493,17.414,17.414,0,0,0,13.136,2.987,33.172,33.172,0,0,0,8.486-2.621,1.919,1.919,0,0,1,2.789,1.846,22.01,22.01,0,0,0,.132,4.465c.881,6.681,5.907,13.679,11.408,17.392a1.9,1.9,0,0,1,.635,2.445,21.794,21.794,0,0,0-1.34,16.834c-.127.014-.253.014-.38.03-9.848,1.3-14.684,7.836-17.149,16.794a1.908,1.908,0,0,1-1.895,1.379c-3.33-.068-11.386.307-16.619,5.063a1.834,1.834,0,0,1-1.8.382c-6.712-2.223-14.227.7-17.242,2.118a1.912,1.912,0,0,1-2.292-.492c-5.888-7.188-12.962-11.2-22.488-8.388-.123.036-.238.087-.36.126a21.8,21.8,0,0,0-8.056-14.842,1.9,1.9,0,0,1-.413-2.491c3.521-5.627,5.274-14.061,3.368-20.526a22.134,22.134,0,0,0-1.691-4.133,1.919,1.919,0,0,1,1.8-2.819,33.138,33.138,0,0,0,8.818-1.049,17.418,17.418,0,0,0,10.8-8.061,1.95,1.95,0,0,1,2.729-.672,17.414,17.414,0,0,0,13.435,2.1" transform="translate(-1216.419 -1554.214)" fill="#fff"/>
      <path id="패스_32" data-name="패스 32" d="M1251.594,1627.761a3.624,3.624,0,0,1-2.811-1.322c-6.261-7.642-12.818-10.124-20.634-7.818-.164.06-.247.091-.335.118a1.757,1.757,0,0,1-2.269-1.49,20.05,20.05,0,0,0-7.417-13.665,3.671,3.671,0,0,1-.8-4.786c3.525-5.631,4.83-13.484,3.173-19.1a20.2,20.2,0,0,0-1.555-3.8,3.625,3.625,0,0,1,.122-3.672,3.7,3.7,0,0,1,3.3-1.729,31.1,31.1,0,0,0,8.323-1,15.61,15.61,0,0,0,9.71-7.253,3.707,3.707,0,0,1,5.162-1.271,15.6,15.6,0,0,0,12.086,1.895c.041-.01.082-.019.125-.026a15.593,15.593,0,0,0,10.277-6.635,3.707,3.707,0,0,1,5.235-.935,15.606,15.606,0,0,0,11.817,2.687,31.151,31.151,0,0,0,8.012-2.465,3.679,3.679,0,0,1,3.715.242,3.624,3.624,0,0,1,1.6,3.306,20.284,20.284,0,0,0,.122,4.107c.764,5.8,5.143,12.451,10.65,16.167a3.666,3.666,0,0,1,1.217,4.7,20.053,20.053,0,0,0-1.233,15.5,1.754,1.754,0,0,1-1.47,2.281c-.09.011-.181.016-.27.023-8.163,1.071-13.148,6-15.767,15.524a3.7,3.7,0,0,1-3.625,2.669c-3.042-.072-10.619.262-15.4,4.607a3.584,3.584,0,0,1-3.53.75c-6.136-2.031-13.2.75-15.947,2.038A3.711,3.711,0,0,1,1251.594,1627.761Zm-18.019-13.487c6.568,0,12.476,3.289,17.924,9.939a.176.176,0,0,0,.189.015c3.133-1.471,11.205-4.626,18.54-2.194,5.784-5.21,14.436-5.6,17.9-5.535.083-.005.153-.038.166-.089,2.827-10.273,8.394-16.112,17-17.8a22.279,22.279,0,0,1-.411-2.222,23.82,23.82,0,0,1,2.412-13.962.144.144,0,0,0-.05-.194c-6.277-4.237-11.281-11.893-12.168-18.619a23.823,23.823,0,0,1-.142-4.819.134.134,0,0,0-.06-.14.186.186,0,0,0-.2,0,35.737,35.737,0,0,1-8.959,2.773,19.088,19.088,0,0,1-14.456-3.286.211.211,0,0,0-.164-.044.217.217,0,0,0-.137.1,20.829,20.829,0,0,1-27.232,5.775.2.2,0,0,0-.164-.033.217.217,0,0,0-.132.106,19.082,19.082,0,0,1-11.878,8.87,35.717,35.717,0,0,1-9.315,1.1.178.178,0,0,0-.182.086.135.135,0,0,0,0,.153,23.77,23.77,0,0,1,1.826,4.464c1.92,6.506.454,15.533-3.564,21.952a.146.146,0,0,0,.033.2,23.809,23.809,0,0,1,7.871,11.78,22.371,22.371,0,0,1,.526,2.2A21.708,21.708,0,0,1,1233.574,1614.274Z" transform="translate(-1216.779 -1554.575)" fill="#fff"/>
    </g>
    <path id="패스_33" data-name="패스 33" d="M1241.491,1571.345a5.3,5.3,0,1,0,6.8,3.129A5.3,5.3,0,0,0,1241.491,1571.345Z" transform="translate(-1042.411 -1122.077)" fill="#a88571"/>
    <path id="패스_34" data-name="패스 34" d="M1266.52,1568.038a5.3,5.3,0,1,0,6.8,3.13A5.3,5.3,0,0,0,1266.52,1568.038Z" transform="translate(-1035.95 -1122.931)" fill="#a88571"/>
    <g id="그룹_18" data-name="그룹 18" transform="translate(160.073 465.337)">
      <ellipse id="타원_1" data-name="타원 1" cx="12.576" cy="5.436" rx="12.576" ry="5.436" transform="translate(0.996 3.879) rotate(-8.332)" fill="#fab78b"/>
      <path id="패스_35" data-name="패스 35" d="M1220.721,1598.921c-5.506,0-10.352-1.646-10.9-5.36-.685-4.672,6.091-8.16,13.138-9.192a24.9,24.9,0,0,1,9.739.328c3.217.864,5.163,2.538,5.482,4.709s-1.066,4.334-3.9,6.086a24.851,24.851,0,0,1-9.236,3.106A30.051,30.051,0,0,1,1220.721,1598.921Zm6.53-11.359a26.319,26.319,0,0,0-3.78.281c-6.926,1.014-10.355,3.973-10.173,5.209s4.314,3.088,11.24,2.075a21.647,21.647,0,0,0,7.9-2.621c1.681-1.038,2.353-2.048,2.273-2.589h0c-.08-.541-1.013-1.316-2.92-1.828A17.821,17.821,0,0,0,1227.251,1587.562Z" transform="translate(-1209.778 -1584.049)" fill="#fab78b"/>
    </g>
    <path id="패스_36" data-name="패스 36" d="M1303.949,1579.363c.435,2.97-4.783,6.2-11.656,7.2s-12.8-.586-13.231-3.557,4.784-6.194,11.656-7.2S1303.513,1576.392,1303.949,1579.363Z" transform="translate(-1031.825 -1120.917)" fill="#fab78b"/>
    <g id="그룹_19" data-name="그룹 19" transform="translate(245.456 452.831)">
      <path id="패스_37" data-name="패스 37" d="M1288.583,1588.982c-5.507,0-10.353-1.646-10.9-5.359-.318-2.173,1.067-4.334,3.9-6.084a24.862,24.862,0,0,1,9.235-3.109c7.046-1.032,14.539.369,15.224,5.039h0c.683,4.67-6.092,8.159-13.138,9.192A30.077,30.077,0,0,1,1288.583,1588.982Zm6.588-11.37a26.44,26.44,0,0,0-3.839.292,21.656,21.656,0,0,0-7.9,2.621c-1.68,1.038-2.352,2.048-2.272,2.589.181,1.236,4.311,3.089,11.239,2.073s10.355-3.973,10.174-5.209h0C1302.428,1578.991,1299.766,1577.612,1295.171,1577.612Z" transform="translate(-1277.641 -1574.109)" fill="#fab78b"/>
    </g>
    <path id="패스_38" data-name="패스 38" d="M1200.063,1509.473a2.089,2.089,0,0,0-1.512,1.024,2.258,2.258,0,0,0-.166,1.95c2.669,7.061,10.955,14.875,20.153,19a34.167,34.167,0,0,0,13.013,3.164,8.229,8.229,0,0,0,5.9-9.926,9.245,9.245,0,0,1,.868-2.018C1232.567,1516.072,1220.474,1506.523,1200.063,1509.473Z" transform="translate(-1052.685 -1138.107)" fill="#8fba7e"/>
    <path id="패스_39" data-name="패스 39" d="M1197.463,1513.787a3.952,3.952,0,0,1,3.069-5.332c20.763-3.008,33.358,6.618,39.518,13.5a9.29,9.29,0,0,1,1.225-1.184c-6.5-7.184-19.645-17.146-40.995-14.055a5.591,5.591,0,0,0-4.032,2.715,5.744,5.744,0,0,0-.425,4.974c3.018,7.988,11.858,16.414,22,20.967a37.936,37.936,0,0,0,13.8,3.439,9.353,9.353,0,0,1,.146-1.725C1216.842,1536.454,1201.446,1524.328,1197.463,1513.787Z" transform="translate(-1053.405 -1138.825)" fill="#8fba7e"/>
    <path id="패스_40" data-name="패스 40" d="M1231.911,1534.976a34.165,34.165,0,0,1-13.013-3.164c-9.2-4.129-17.485-11.944-20.153-19a2.258,2.258,0,0,1,.166-1.95,2.089,2.089,0,0,1,1.512-1.024c20.411-2.95,32.5,6.6,38.253,13.2a9.22,9.22,0,0,1,1.013-1.434c-6.16-6.884-18.754-16.51-39.518-13.5a3.952,3.952,0,0,0-3.069,5.332c3.983,10.541,19.38,22.667,34.306,23.3a9.619,9.619,0,0,1,.223-.946C1231.712,1535.505,1231.808,1535.239,1231.911,1534.976Z" transform="translate(-1053.045 -1138.466)" fill="#8fba7e"/>
    <g id="그룹_21" data-name="그룹 21" transform="translate(208.698 354.234)">
      <g id="그룹_20" data-name="그룹 20" transform="translate(0)">
        <path id="패스_41" data-name="패스 41" d="M1289.373,1501.935c-2.094,9.216-9.612,28.871-35.638,28.376a3.991,3.991,0,0,1-3.819-4.87c3.168-14.466,18.429-27.638,35.491-28.3A3.936,3.936,0,0,1,1289.373,1501.935Z" transform="translate(-1248.066 -1495.383)" fill="#8fba7e"/>
        <path id="패스_42" data-name="패스 42" d="M1255.057,1532.436c-.331,0-.659,0-1-.009a5.746,5.746,0,0,1-5.5-7c3.5-15.97,19.808-29.006,37.138-29.677a5.69,5.69,0,0,1,5.743,6.938C1289.4,1511.689,1281.771,1532.436,1255.057,1532.436Zm30.864-33.181-.084,0c-15.545.6-30.728,12.679-33.844,26.92a2.262,2.262,0,0,0,.428,1.9,2.193,2.193,0,0,0,1.71.843c.312.005.625.009.932.009,23.313,0,30.654-16.869,32.96-27.019h0a2.16,2.16,0,0,0-.455-1.867A2.134,2.134,0,0,0,1285.921,1499.255Z" transform="translate(-1248.426 -1495.743)" fill="#8fba7e"/>
      </g>
    </g>
    <path id="패스_43" data-name="패스 43" d="M1275.852,1592.1a2.2,2.2,0,0,0-3.076.351,6.964,6.964,0,0,1-4.7,2.464h-.052c-1.837,0-3.742-1.1-5.666-3.249l-.413-2.689c2.037-1.662,5.157-4.787,4.656-8.041a1.922,1.922,0,0,0-1.029-1.532c-1.251-.627-2.943.291-4.733,1.258a4.457,4.457,0,0,1-4.669.717c-2-.384-3.886-.746-4.892.22a1.921,1.921,0,0,0-.522,1.77c.5,3.255,4.414,5.3,6.856,6.273l.413,2.69c-1.2,2.65-2.7,4.278-4.477,4.815a6.952,6.952,0,0,1-5.221-.94,2.192,2.192,0,0,0-2.472,3.621,12.089,12.089,0,0,0,6.271,1.907,9.227,9.227,0,0,0,2.636-.376c.128-.038.249-.1.376-.138,1.086,2.781,3.236,5.954,6.549,5.954a5.411,5.411,0,0,0,.829-.064c3.782-.581,5.046-4.607,5.265-7.827.079,0,.157.015.237.015h.165c4.814-.085,7.908-3.969,8.037-4.135A2.185,2.185,0,0,0,1275.852,1592.1Zm-14,10.678c-1.13.176-2.383-2.283-2.91-3.977a13.7,13.7,0,0,0,1.92-2.453,13.75,13.75,0,0,0,2.573,1.76C1263.445,1599.889,1262.982,1602.608,1261.851,1602.781Z" transform="translate(-1040.636 -1119.963)" fill="#a88571"/>
  </g>
</svg>
